<?xml version="1.0" encoding="UTF-8" standalone="no"?>
<!-- Created with Inkscape (http://www.inkscape.org/) -->

<svg
   xmlns:dc="http://purl.org/dc/elements/1.1/"
   xmlns:cc="http://creativecommons.org/ns#"
   xmlns:rdf="http://www.w3.org/1999/02/22-rdf-syntax-ns#"
   xmlns:svg="http://www.w3.org/2000/svg"
   xmlns="http://www.w3.org/2000/svg"
   xmlns:sodipodi="http://sodipodi.sourceforge.net/DTD/sodipodi-0.dtd"
   xmlns:inkscape="http://www.inkscape.org/namespaces/inkscape"
   width="512mm"
   height="512mm"
   viewBox="0 0 512 512"
   version="1.1"
   id="svg837"
   inkscape:version="0.92.5 (2060ec1f9f, 2020-04-08)"
   sodipodi:docname="http.svg"
   inkscape:export-filename="/home/kamil/Pulpit/gtk/icons/types/48/http.png"
   inkscape:export-xdpi="2.3812499"
   inkscape:export-ydpi="2.3812499">
  <defs
     id="defs831">
    <clipPath
       clipPathUnits="userSpaceOnUse"
       id="clipPath1667">
      <g
         id="g1673"
         transform="translate(0,1.2708333e-6)">
        <rect
           ry="0"
           y="-204.39761"
           x="25.657875"
           height="144.32555"
           width="470.39435"
           id="rect1669"
           style="opacity:0.98999999;fill:#ff0000;fill-opacity:1;stroke:none;stroke-width:33.96374512;stroke-linecap:round;stroke-linejoin:round;stroke-miterlimit:4;stroke-dasharray:none;stroke-opacity:1" />
        <rect
           ry="0"
           y="140.38005"
           x="29.9342"
           height="144.32555"
           width="470.39435"
           id="rect1671"
           style="opacity:0.98999999;fill:#ff0000;fill-opacity:1;stroke:none;stroke-width:33.96374512;stroke-linecap:round;stroke-linejoin:round;stroke-miterlimit:4;stroke-dasharray:none;stroke-opacity:1" />
      </g>
    </clipPath>
  </defs>
  <sodipodi:namedview
     id="base"
     pagecolor="#ffffff"
     bordercolor="#666666"
     borderopacity="1.0"
     inkscape:pageopacity="0.0"
     inkscape:pageshadow="2"
     inkscape:zoom="0.24748737"
     inkscape:cx="1270.2403"
     inkscape:cy="1054.5144"
     inkscape:document-units="mm"
     inkscape:current-layer="layer1"
     showgrid="false"
     units="mm"
     inkscape:window-width="1848"
     inkscape:window-height="1016"
     inkscape:window-x="72"
     inkscape:window-y="27"
     inkscape:window-maximized="1"
     inkscape:snap-bbox="true"
     inkscape:bbox-paths="true"
     inkscape:bbox-nodes="true"
     inkscape:snap-bbox-edge-midpoints="true"
     inkscape:snap-bbox-midpoints="true"
     inkscape:object-paths="true"
     inkscape:snap-intersection-paths="true"
     inkscape:snap-smooth-nodes="true"
     inkscape:snap-midpoints="true"
     inkscape:snap-object-midpoints="true"
     inkscape:snap-center="true"
     inkscape:snap-text-baseline="true"
     inkscape:snap-page="true"
     inkscape:snap-global="false" />
  <metadata
     id="metadata834">
    <rdf:RDF>
      <cc:Work
         rdf:about="">
        <dc:format>image/svg+xml</dc:format>
        <dc:type
           rdf:resource="http://purl.org/dc/dcmitype/StillImage" />
        <dc:title></dc:title>
      </cc:Work>
    </rdf:RDF>
  </metadata>
  <g
     inkscape:label="Layer 1"
     inkscape:groupmode="layer"
     id="layer1"
     transform="translate(0,215)">
    <g
       id="g1644"
       clip-path="url(#clipPath1667)">
      <path
         inkscape:connector-curvature="0"
         id="path1404"
         d="M 474.54777,40.999996 A 218.54776,218.54776 0 0 1 256.00001,259.54774 218.54776,218.54776 0 0 1 37.452265,40.999996 218.54776,218.54776 0 0 1 256.00001,-177.54776 218.54776,218.54776 0 0 1 474.54777,40.999996 Z"
         style="opacity:0.98999999;fill:none;fill-opacity:1;stroke:#000000;stroke-width:23.24528503;stroke-linecap:round;stroke-linejoin:round;stroke-miterlimit:4;stroke-dasharray:none;stroke-opacity:1" />
      <path
         sodipodi:nodetypes="cc"
         inkscape:connector-curvature="0"
         id="path1406"
         d="m 256.00001,-177.54776 c 163.60888,73.65034 163.58703,363.46985 4.6e-4,437.09549"
         style="fill:none;stroke:#000000;stroke-width:23.24528503;stroke-linecap:round;stroke-linejoin:round;stroke-miterlimit:4;stroke-dasharray:none;stroke-opacity:1" />
      <path
         inkscape:connector-curvature="0"
         id="path1452"
         d="m 256.00002,-177.54776 4.6e-4,437.09549"
         style="fill:none;stroke:#000000;stroke-width:23.24528503;stroke-linecap:round;stroke-linejoin:round;stroke-miterlimit:4;stroke-dasharray:none;stroke-opacity:1" />
      <path
         sodipodi:nodetypes="cc"
         inkscape:connector-curvature="0"
         id="path1406-5"
         d="M 256.00002,-177.54776 C 92.391155,-103.89742 92.41301,185.9221 255.99958,259.54774"
         style="fill:none;stroke:#000000;stroke-width:23.24528503;stroke-linecap:round;stroke-linejoin:round;stroke-miterlimit:4;stroke-dasharray:none;stroke-opacity:1" />
      <path
         inkscape:connector-curvature="0"
         id="path1490"
         d="M 37.452265,40.999994 H 474.54776"
         style="fill:none;stroke:#000000;stroke-width:23.24528503;stroke-linecap:butt;stroke-linejoin:miter;stroke-miterlimit:4;stroke-dasharray:none;stroke-opacity:1" />
      <path
         sodipodi:nodetypes="cc"
         inkscape:connector-curvature="0"
         id="path1499"
         d="m 89.907559,183.0437 c 122.625491,-40.81696 209.560151,-40.81696 332.184921,0"
         style="fill:none;stroke:#000000;stroke-width:23.24528503;stroke-linecap:butt;stroke-linejoin:miter;stroke-miterlimit:4;stroke-dasharray:none;stroke-opacity:1" />
      <path
         sodipodi:nodetypes="cc"
         inkscape:connector-curvature="0"
         id="path1499-3"
         d="m 422.34788,-101.34181 c -122.62549,40.816977 -209.56014,40.816977 -332.184933,0"
         style="fill:none;stroke:#000000;stroke-width:23.24528503;stroke-linecap:butt;stroke-linejoin:miter;stroke-miterlimit:4;stroke-dasharray:none;stroke-opacity:1" />
    </g>
    <rect
       style="opacity:0.98999999;fill:none;fill-opacity:1;stroke:#000000;stroke-width:21.57588387;stroke-linecap:round;stroke-linejoin:round;stroke-miterlimit:4;stroke-dasharray:none;stroke-opacity:1"
       id="rect1603"
       width="490.42361"
       height="200.30084"
       x="10.788457"
       y="-59.150444"
       ry="67.495087" />
    <g
       aria-label="HTTP"
       style="font-style:normal;font-variant:normal;font-weight:normal;font-stretch:normal;font-size:174.26626587px;line-height:1.25;font-family:'Comic Neue';-inkscape-font-specification:'Comic Neue';letter-spacing:0px;word-spacing:0px;fill:#000000;fill-opacity:1;stroke:#000000;stroke-width:4.41704416;stroke-miterlimit:4;stroke-dasharray:none;stroke-opacity:1"
       id="text1596">
      <path
         d="m 68.4903,100.42478 q -3.659592,0 -6.09932,-2.439729 -2.439727,-2.613994 -2.439727,-6.09932 V -9.7115015 q 0,-3.6595915 2.439727,-6.0993195 2.439728,-2.439728 6.09932,-2.439728 3.659591,0 6.273585,2.439728 2.613994,2.439728 2.613994,6.0993195 V 35.597728 L 140.8108,26.710148 V -9.7115015 q 0,-3.6595915 2.43973,-6.0993195 2.61399,-2.439728 6.27358,-2.439728 3.48533,0 6.09932,2.439728 2.614,2.439728 2.614,6.0993195 V 91.885731 q 0,3.31106 -2.614,5.925054 -2.61399,2.613995 -6.09932,2.613995 -3.65959,0 -6.27358,-2.439729 -2.43973,-2.613994 -2.43973,-6.09932 V 43.788242 l -63.432921,8.88758 v 39.209909 q 0,3.485326 -2.613994,6.09932 -2.613994,2.439729 -6.273585,2.439729 z"
         style="font-weight:bold;stroke:#000000;stroke-width:4.41704416;stroke-miterlimit:4;stroke-dasharray:none;stroke-opacity:1"
         id="path1678" />
      <path
         d="m 216.96495,100.42478 q -3.48533,0 -6.09932,-2.439729 -2.614,-2.613994 -2.614,-6.09932 V 0.04740936 h -27.3598 q -3.48532,0 -6.09932,-2.61399396 -2.43973,-2.613994 -2.43973,-6.0993193 0,-3.6595921 2.43973,-6.0993191 2.614,-2.439728 6.09932,-2.439728 h 72.14623 q 3.6596,0 6.09932,2.439728 2.43973,2.439727 2.43973,6.0993191 0,3.6595916 -2.43973,6.2735855 -2.43972,2.43972776 -6.09932,2.43972776 H 225.50399 V 91.885731 q 0,3.485326 -2.61399,6.09932 -2.43973,2.439729 -5.92505,2.439729 z"
         style="font-weight:bold;stroke:#000000;stroke-width:4.41704416;stroke-miterlimit:4;stroke-dasharray:none;stroke-opacity:1"
         id="path1680" />
      <path
         d="m 311.76524,100.42478 q -3.48532,0 -6.09932,-2.439729 -2.61399,-2.613994 -2.61399,-6.09932 V 0.04740936 h -27.35981 q -3.48532,0 -6.09932,-2.61399396 -2.43972,-2.613994 -2.43972,-6.0993193 0,-3.6595921 2.43972,-6.0993191 2.614,-2.439728 6.09932,-2.439728 h 72.14624 q 3.65959,0 6.09932,2.439728 2.43972,2.439727 2.43972,6.0993191 0,3.6595916 -2.43972,6.2735855 -2.43973,2.43972776 -6.09932,2.43972776 H 320.30429 V 91.885731 q 0,3.485326 -2.614,6.09932 -2.43972,2.439729 -5.92505,2.439729 z"
         style="font-weight:bold;stroke:#000000;stroke-width:4.41704416;stroke-miterlimit:4;stroke-dasharray:none;stroke-opacity:1"
         id="path1682" />
      <path
         d="m 379.20598,100.42478 q -3.48533,0 -6.09932,-2.439729 -2.61399,-2.439728 -2.61399,-6.09932 V -7.6203063 q 0,-4.8794557 1.21986,-6.9706507 1.21986,-2.265461 4.53092,-2.962526 3.48533,-0.871332 11.15304,-0.871332 32.41353,0 48.44602,9.5846448 16.20677,9.58464463 16.20677,27.7083362 0,14.638366 -10.28171,24.048745 -10.28171,9.410378 -24.92008,13.767035 -14.63836,4.356656 -29.10246,4.879455 v 30.32233 q 0,3.659592 -2.43973,6.09932 -2.43973,2.439729 -6.09932,2.439729 z m 8.53905,-55.939473 q 17.07809,-1.045597 32.06499,-6.796384 14.9869,-5.925053 14.9869,-18.820757 0,-9.5846445 -11.67584,-14.8126325 -11.50158,-5.227988 -32.93633,-5.227988 h -2.43972 z"
         style="font-weight:bold;stroke:#000000;stroke-width:4.41704416;stroke-miterlimit:4;stroke-dasharray:none;stroke-opacity:1"
         id="path1684" />
    </g>
  </g>
</svg>
